<?xml version="1.0" encoding="UTF-8"?>
<svg version="1.1" xmlns="http://www.w3.org/2000/svg" width="1600" height="1600">
<path d="M0 0 C4.85534422 0.00420354 9.71067374 -0.00325032 14.56601428 -0.00915251 C23.06067887 -0.01788419 31.55531935 -0.01923745 40.04998731 -0.01564924 C52.68258244 -0.01032731 65.31515434 -0.01645253 77.94774695 -0.02473217 C101.82640686 -0.03995307 125.70505615 -0.04167917 149.5837199 -0.03920914 C168.02789464 -0.03737463 186.4720659 -0.03913941 204.91624021 -0.04343358 C207.56856257 -0.04403599 210.22088493 -0.04463719 212.87320729 -0.04523719 C217.8673571 -0.04636991 217.8673571 -0.04636991 222.86150691 -0.04751045 C260.68160848 -0.05617889 298.50170875 -0.06083077 336.32181119 -0.05656282 C337.37141195 -0.05644573 337.37141195 -0.05644573 338.44221677 -0.05632628 C346.24420837 -0.05545356 354.04619996 -0.05452429 361.84819155 -0.05357565 C362.9047089 -0.05344738 362.9047089 -0.05344738 363.98257003 -0.05331653 C369.83350912 -0.05260592 369.83350912 -0.05260592 372.52779717 -0.0522743 C417.5647417 -0.04674042 462.60166572 -0.05427716 507.63860654 -0.07304517 C518.98532942 -0.07776782 530.33205231 -0.08244851 541.6787753 -0.08688203 C542.37754339 -0.08715535 543.07631147 -0.08742868 543.79625434 -0.08771028 C565.35171444 -0.09608878 586.90717284 -0.10076192 608.46263456 -0.1015896 C609.13993016 -0.10161596 609.81722575 -0.10164233 610.51504546 -0.1016695 C625.38721936 -0.10221042 640.25939312 -0.10183751 655.13156697 -0.10062978 C661.11616752 -0.10015123 667.10076807 -0.09975554 673.08536863 -0.0993723 C675.04913128 -0.09923621 675.04913128 -0.09923621 677.05256591 -0.09909736 C696.78531728 -0.09793312 716.51805617 -0.10456655 736.25080442 -0.11518422 C758.70374345 -0.12725345 781.15665506 -0.1287754 803.60959452 -0.11639406 C816.16136166 -0.10978166 828.71306317 -0.11135902 841.26482501 -0.12498257 C849.66651191 -0.13326251 858.06814994 -0.13048377 866.46983292 -0.1190073 C871.24521043 -0.11278581 876.02046044 -0.11105854 880.7958303 -0.12287064 C967.0514491 -0.3214013 1047.81937549 25.52973663 1114.53606748 81.26313647 C1115.53509092 82.07524584 1116.53411435 82.88735522 1117.56341123 83.72407397 C1125.39502097 90.17545002 1132.65960837 97.17321629 1139.84856748 104.32563647 C1140.76742734 105.23531176 1141.6862872 106.14498706 1142.63299131 107.08222827 C1148.69421362 113.17081502 1154.17905133 119.55305619 1159.53606748 126.26313647 C1160.60820419 127.5457142 1161.68451537 128.82482375 1162.76653623 130.09907397 C1175.76993311 145.57930835 1186.72650451 162.60592313 1196.53606748 180.26313647 C1196.97515439 181.05091479 1197.41424131 181.83869311 1197.86663388 182.6503435 C1218.8079204 220.55860355 1231.95848309 262.3671807 1237.53606748 305.26313647 C1237.70511269 306.4736088 1237.87415791 307.68408113 1238.04832571 308.93123444 C1240.22421912 326.11498351 1239.82209815 343.44080191 1239.79920395 360.72706899 C1239.79500041 365.58241321 1239.80245427 370.43774274 1239.80835646 375.29308327 C1239.81708814 383.78774787 1239.8184414 392.28238834 1239.81485318 400.7770563 C1239.80953126 413.40965143 1239.81565648 426.04222333 1239.82393612 438.67481594 C1239.83915702 462.55347585 1239.84088311 486.43212514 1239.83841309 510.31078889 C1239.83657858 528.75496363 1239.83834336 547.1991349 1239.84263753 565.6433092 C1239.84323994 568.29563156 1239.84384114 570.94795392 1239.84444113 573.60027628 C1239.84557386 578.5944261 1239.84557386 578.5944261 1239.8467144 583.58857591 C1239.85538284 621.40867747 1239.86003471 659.22877774 1239.85576677 697.04888018 C1239.85568871 697.74861402 1239.85561065 698.44834787 1239.85553023 699.16928576 C1239.8546575 706.97127736 1239.85372824 714.77326895 1239.8527796 722.57526054 C1239.85269409 723.27960544 1239.85260858 723.98395034 1239.85252048 724.70963902 C1239.85180987 730.56057811 1239.85180987 730.56057811 1239.85147825 733.25486616 C1239.84594437 778.29181069 1239.8534811 823.32873471 1239.87224912 868.36567553 C1239.87697176 879.71239841 1239.88165246 891.0591213 1239.88608598 902.40584429 C1239.8863593 903.10461238 1239.88663262 903.80338046 1239.88691423 904.52332333 C1239.89529272 926.07878344 1239.89996587 947.63424183 1239.90079354 969.18970355 C1239.90081991 969.86699915 1239.90084628 970.54429475 1239.90087344 971.24211445 C1239.90141437 986.11428835 1239.90104146 1000.98646211 1239.89983373 1015.85863596 C1239.89935518 1021.84323651 1239.89895949 1027.82783706 1239.89857625 1033.81243762 C1239.89844015 1035.77620027 1239.89844015 1035.77620027 1239.89830131 1037.77963491 C1239.89713707 1057.51238627 1239.9037705 1077.24512516 1239.91438817 1096.97787341 C1239.9264574 1119.43081244 1239.92797935 1141.88372405 1239.91559801 1164.33666351 C1239.90898561 1176.88843065 1239.91056297 1189.44013216 1239.92418652 1201.991894 C1239.93246646 1210.3935809 1239.92968772 1218.79521893 1239.91821125 1227.19690191 C1239.91198975 1231.97227942 1239.91026248 1236.74752943 1239.92207459 1241.52289929 C1240.12060525 1327.77851809 1214.26946732 1408.54644448 1158.53606748 1475.26313647 C1157.7239581 1476.26215991 1156.91184873 1477.26118334 1156.07512998 1478.29048022 C1149.62375392 1486.12208997 1142.62598766 1493.38667736 1135.47356748 1500.57563647 C1134.10905454 1501.95392626 1134.10905454 1501.95392626 1132.71697568 1503.3600603 C1126.62838893 1509.42128261 1120.24614776 1514.90612032 1113.53606748 1520.26313647 C1112.25348975 1521.33527318 1110.97438019 1522.41158436 1109.70012998 1523.49360522 C1094.2198956 1536.4970021 1077.19328082 1547.4535735 1059.53606748 1557.26313647 C1058.3544 1557.92176684 1058.3544 1557.92176684 1057.14886045 1558.59370288 C1019.24060039 1579.53498939 977.43202325 1592.68555209 934.53606748 1598.26313647 C933.32559515 1598.43218169 932.11512282 1598.6012269 930.86796951 1598.7753947 C913.68422044 1600.95128812 896.35840204 1600.54916715 879.07213496 1600.52627294 C874.21679074 1600.5220694 869.36146121 1600.52952326 864.50612067 1600.53542545 C856.01145608 1600.54415713 847.51681561 1600.54551039 839.02214765 1600.54192218 C826.38955252 1600.53660025 813.75698061 1600.54272547 801.12438801 1600.55100511 C777.2457281 1600.56622601 753.3670788 1600.56795211 729.48841505 1600.56548208 C711.04424032 1600.56364757 692.60006905 1600.56541235 674.15589475 1600.56970652 C671.50357239 1600.57030893 668.85125003 1600.57091013 666.19892766 1600.57151013 C661.20477785 1600.57264285 661.20477785 1600.57264285 656.21062804 1600.57378339 C618.39052648 1600.58245183 580.5704262 1600.58710371 542.75032376 1600.58283576 C542.05058992 1600.5827577 541.35085608 1600.58267964 540.62991818 1600.58259922 C532.82792659 1600.5817265 525.02593499 1600.58079723 517.2239434 1600.57984859 C516.51959851 1600.57976308 515.81525361 1600.57967757 515.08956492 1600.57958947 C509.23862584 1600.57887886 509.23862584 1600.57887886 506.54433779 1600.57854724 C461.50739326 1600.57301336 416.47046924 1600.5805501 371.43352842 1600.59931811 C360.08680554 1600.60404075 348.74008265 1600.60872145 337.39335965 1600.61315497 C336.34520753 1600.61356495 336.34520753 1600.61356495 335.27588061 1600.61398322 C313.72042051 1600.62236172 292.16496212 1600.62703486 270.6095004 1600.62786254 C269.9322048 1600.6278889 269.2549092 1600.62791527 268.55708949 1600.62794243 C253.6849156 1600.62848336 238.81274184 1600.62811045 223.94056798 1600.62690272 C217.95596744 1600.62642417 211.97136688 1600.62602848 205.98676633 1600.62564524 C204.67759123 1600.62555451 203.36841612 1600.62546378 202.01956904 1600.6253703 C182.28681768 1600.62420606 162.55407879 1600.63083949 142.82133054 1600.64145716 C120.36839151 1600.65352639 97.91547989 1600.65504834 75.46254044 1600.642667 C62.9107733 1600.6360546 50.35907179 1600.63763196 37.80730995 1600.65125551 C29.40562305 1600.65953545 21.00398501 1600.65675671 12.60230204 1600.64528024 C7.82692453 1600.63905874 3.05167451 1600.63733147 -1.72369535 1600.64914358 C-82.29134737 1600.83458251 -160.50427078 1578.82011047 -224.46393252 1528.26313647 C-225.37320498 1527.54673999 -225.37320498 1527.54673999 -226.30084658 1526.81587084 C-244.91885286 1512.09380384 -263.6620179 1495.83563385 -278.28424502 1477.06001147 C-279.95006889 1474.92250271 -281.64415572 1472.84600609 -283.39362002 1470.77876147 C-296.51254166 1455.18430771 -307.57523436 1438.06279316 -317.46393252 1420.26313647 C-318.12256289 1419.08146899 -318.12256289 1419.08146899 -318.79449893 1417.87592944 C-339.73578544 1379.96766939 -352.88634814 1338.15909224 -358.46393252 1295.26313647 C-358.63297774 1294.05266414 -358.80202295 1292.84219181 -358.97619075 1291.5950385 C-361.15208417 1274.41128943 -360.7499632 1257.08547103 -360.72706899 1239.79920395 C-360.72286545 1234.94385973 -360.73031931 1230.0885302 -360.7362215 1225.23318967 C-360.74495318 1216.73852507 -360.74630644 1208.2438846 -360.74271823 1199.74921664 C-360.7373963 1187.11662151 -360.74352153 1174.4840496 -360.75180116 1161.851457 C-360.76702206 1137.97279709 -360.76874816 1114.0941478 -360.76627813 1090.21548405 C-360.76444362 1071.77130931 -360.7662084 1053.32713804 -360.77050257 1034.88296374 C-360.77110498 1032.23064138 -360.77170618 1029.57831902 -360.77230618 1026.92599665 C-360.7734389 1021.93184684 -360.7734389 1021.93184684 -360.77457944 1016.93769703 C-360.78324788 979.11759547 -360.78789976 941.29749519 -360.78363181 903.47739276 C-360.78355375 902.77765891 -360.7834757 902.07792507 -360.78339527 901.35698718 C-360.78252255 893.55499558 -360.78159328 885.75300399 -360.78064464 877.9510124 C-360.78055913 877.2466675 -360.78047362 876.5423226 -360.78038552 875.81663391 C-360.77967491 869.96569483 -360.77967491 869.96569483 -360.77934329 867.27140678 C-360.77380941 822.23446225 -360.78134615 777.19753823 -360.80011416 732.16059741 C-360.80483681 720.81387453 -360.80951751 709.46715164 -360.81395102 698.12042865 C-360.81422435 697.42166056 -360.81449767 696.72289248 -360.81477927 696.00294961 C-360.82315777 674.4474895 -360.82783091 652.89203111 -360.82865859 631.33656939 C-360.82868495 630.65927379 -360.82871132 629.98197819 -360.82873849 629.28415848 C-360.82927941 614.41198459 -360.8289065 599.53981083 -360.82769877 584.66763698 C-360.82722023 578.68303643 -360.82682454 572.69843588 -360.8264413 566.71383532 C-360.82635056 565.40466022 -360.82625983 564.09548511 -360.82616635 562.74663803 C-360.82500211 543.01388667 -360.83163554 523.28114778 -360.84225322 503.54839953 C-360.85432245 481.0954605 -360.85584439 458.64254889 -360.84346305 436.18960943 C-360.83685065 423.63784229 -360.83842801 411.08614078 -360.85205156 398.53437894 C-360.8603315 390.13269204 -360.85755276 381.731054 -360.8460763 373.32937103 C-360.8398548 368.55399352 -360.83812753 363.77874351 -360.84993963 359.00337365 C-361.03537856 278.43572162 -339.02090652 200.22279821 -288.46393252 136.26313647 C-287.98633487 135.65695483 -287.50873721 135.05077319 -287.0166669 134.42622241 C-272.2945999 115.80821613 -256.0364299 97.06505109 -237.26080752 82.44282397 C-235.12329876 80.7770001 -233.04680214 79.08291327 -230.97955752 77.33344897 C-215.38510376 64.21452733 -198.26358921 53.15183463 -180.46393252 43.26313647 C-179.6761542 42.82404956 -178.88837588 42.38496264 -178.07672549 41.93257006 C-140.16846544 20.99128355 -98.35988829 7.84072085 -55.46393252 2.26313647 C-53.64822403 2.00956865 -53.64822403 2.00956865 -51.79583455 1.75087824 C-34.61208548 -0.42501518 -17.28626708 -0.02289421 0 0 Z " fill="#7761F3" transform="translate(360.46393252164125,-0.26313646975904703)"/>
<path d="M0 0 C1.0113501 0.01160156 2.0227002 0.02320313 3.06469727 0.03515625 C22.44759982 0.46008971 39.24172138 8.72785659 52.73046875 22.60546875 C64.96641031 36.73478618 69.72280356 53.39092557 69.69951439 71.76040554 C69.70349213 73.29881108 69.70349213 73.29881108 69.70755023 74.86829552 C69.71521712 78.30913319 69.7158014 81.74993501 69.71640015 85.19078064 C69.72041647 87.68107422 69.72485498 90.17136715 69.7296797 92.6616593 C69.74037857 98.79077843 69.7463967 104.91988757 69.75038858 111.04901426 C69.75540807 118.39210339 69.7661371 125.7351815 69.77687032 133.07826411 C69.8036854 151.66799769 69.81875071 170.25773648 69.83221143 188.84748372 C69.83588334 193.88409999 69.8398861 198.92071595 69.8439641 203.9573319 C69.86922505 235.23750451 69.89126679 266.51767767 69.90369225 297.79785824 C69.90661342 305.041427 69.90958098 312.28499573 69.91259766 319.52856445 C69.91296857 320.42845829 69.91333947 321.32835212 69.91372162 322.25551547 C69.92587493 351.4268491 69.95681741 380.59812236 69.99851918 409.76942765 C70.04133347 439.77379259 70.06793654 469.77812566 70.07316696 499.78252198 C70.07390736 504.02284166 70.07481804 508.26316129 70.07582474 512.50348091 C70.07601535 513.33796876 70.07620597 514.1724566 70.07640236 515.03223196 C70.07991144 528.44410185 70.10018828 541.85589592 70.12662137 555.267738 C70.15280483 568.7566158 70.160477 582.24540628 70.14952008 595.73430585 C70.14355719 603.74042103 70.15138139 611.74623934 70.17935092 619.75230941 C70.19872122 625.74197494 70.19173063 631.73131282 70.17478175 637.720998 C70.17198513 640.1355867 70.17756122 642.55020354 70.19259469 644.96474706 C70.33268568 668.94056043 65.81532313 688.05374647 49.00048828 705.92822266 C36.86056204 718.14234879 20.22045594 724.48597943 3.21655273 724.75585938 C-16.67862851 724.71571777 -32.66148862 719.62950687 -47.265625 705.57421875 C-47.98234375 704.84847656 -48.6990625 704.12273438 -49.4375 703.375 C-50.07171875 702.76269531 -50.7059375 702.15039062 -51.359375 701.51953125 C-63.50887897 688.91307691 -68.59846621 670.3238263 -68.57172108 653.27974892 C-68.57407331 652.26121844 -68.57642554 651.24268796 -68.57884905 650.19329292 C-68.58553058 646.76448156 -68.58508108 643.33570818 -68.58467102 639.90689087 C-68.58797017 637.42998521 -68.59169585 634.9530801 -68.5958125 632.47617567 C-68.60478315 626.37243859 -68.60905923 620.26871376 -68.61133147 614.16497181 C-68.61429561 606.85392425 -68.62299431 599.54288629 -68.63174575 592.23184378 C-68.65258325 574.56000477 -68.66305914 556.88816409 -68.67187535 539.21631566 C-68.67608314 530.85422922 -68.68130498 522.49214349 -68.68655988 514.13005765 C-68.70445012 485.49938897 -68.71944533 456.86872008 -68.72688007 428.23804665 C-68.72735483 426.44080801 -68.72783072 424.64356936 -68.72830774 422.84633072 C-68.72854411 421.95507153 -68.72878049 421.06381234 -68.72902403 420.14554529 C-68.73022521 415.63007056 -68.73144067 411.11459582 -68.73266602 406.59912109 C-68.73290617 405.70301526 -68.73314632 404.80690942 -68.73339374 403.88364886 C-68.74128459 374.83747478 -68.76471199 345.79134157 -68.79722196 316.74518533 C-68.83153916 286.02819972 -68.85123299 255.31123801 -68.85452431 224.59423292 C-68.85494184 221.22047956 -68.85542141 217.84672621 -68.85594749 214.47297287 C-68.85607069 213.64227405 -68.85619388 212.81157523 -68.8563208 211.95570372 C-68.85865054 198.60118913 -68.87429789 185.24672207 -68.89478934 171.89222441 C-68.91507052 158.46137763 -68.92051381 145.0305878 -68.91101871 131.59972854 C-68.90581257 123.62678163 -68.91163908 115.65402469 -68.93355338 107.68110522 C-68.94870108 101.71782789 -68.94278727 95.75476255 -68.92888286 89.79147427 C-68.92650568 87.38626722 -68.93083596 84.98104175 -68.94271151 82.57586284 C-69.01627308 66.68776815 -68.43837457 51.52791445 -60.875 37.125 C-60.53911865 36.47152588 -60.2032373 35.81805176 -59.85717773 35.14477539 C-50.97082363 18.74335634 -34.89785219 7.01944325 -17.20703125 1.6953125 C-11.42900547 0.19796428 -5.94723691 -0.08804052 0 0 Z " fill="#FEFEFE" transform="translate(1180.4375,437.625)"/>
<path d="M0 0 C2.2488009 1.69134098 4.38537924 3.45354739 6.50390625 5.3046875 C7.09558594 5.80226563 7.68726563 6.29984375 8.296875 6.8125 C20.20664455 17.65938394 27.5226163 33.9178772 28.69166642 49.8661219 C28.76302694 52.58392375 28.77691607 55.29555351 28.76676178 58.01427555 C28.77086705 59.0506288 28.77497231 60.08698205 28.77920198 61.15473995 C28.790492 64.62014052 28.78763373 68.08538086 28.78479004 71.55079651 C28.78996017 74.06344136 28.79598728 76.57608457 28.80279684 79.08872551 C28.81722161 85.26537411 28.82234046 91.44197292 28.82345495 97.61863638 C28.82528706 105.02022021 28.83863635 112.4217723 28.8521486 119.82334242 C28.88422232 137.70900582 28.89606955 155.59466571 28.9056461 173.48035269 C28.91032227 181.94536561 28.917528 190.41037582 28.92503685 198.87538662 C28.95070272 227.86610976 28.97214235 256.8568314 28.97904205 285.84756565 C28.97948531 287.66636878 28.97992888 289.48517191 28.98037276 291.30397504 C28.98081403 293.12710076 28.981255 294.95022648 28.98169565 296.77335221 C28.98258074 300.43068858 28.98347498 304.08802496 28.984375 307.74536133 C28.98470317 309.10556474 28.98470317 309.10556474 28.98503798 310.49324701 C28.99229861 339.89373949 29.0241394 369.29413333 29.07075573 398.69458804 C29.11998025 429.79699205 29.14738898 460.89933969 29.14977789 492.00178379 C29.15012078 495.41790101 29.15055164 498.83401822 29.15104675 502.25013542 C29.15121406 503.51180132 29.15121406 503.51180132 29.15138474 504.79895542 C29.15368307 518.31672707 29.17570382 531.83439722 29.20482086 545.35213463 C29.23359517 558.94608186 29.23999984 572.53989937 29.22394091 586.1338687 C29.21504949 594.20224845 29.22266376 602.27020858 29.25441792 610.33853292 C29.27630546 616.37448129 29.2665699 622.40995441 29.24487418 628.44592106 C29.24096475 630.87929241 29.24709629 633.31270619 29.2645629 635.746018 C29.42346642 659.3893927 24.42859714 677.05956356 7.50390625 694.3046875 C6.58158203 695.26375 6.58158203 695.26375 5.640625 696.2421875 C-0.19355956 701.83900695 -7.20417863 705.04951213 -14.49609375 708.3046875 C-15.38425781 708.74296875 -16.27242188 709.18125 -17.1875 709.6328125 C-24.30540796 712.64545909 -31.44156155 712.68492494 -39.05859375 712.7421875 C-40.11151611 712.75241943 -41.16443848 712.76265137 -42.24926758 712.77319336 C-59.74065254 712.57782758 -75.58885887 705.06368877 -88.453125 693.40625 C-102.71414002 678.73621926 -108.66840934 661.14428844 -108.6247282 641.06962872 C-108.62648124 640.04814681 -108.62823428 639.02666491 -108.63004044 637.97422901 C-108.63470309 634.54145553 -108.63223424 631.10872435 -108.62980652 627.6759491 C-108.63167435 625.19390446 -108.63397495 622.71186013 -108.63667184 620.22981626 C-108.64151909 614.82815166 -108.64324364 609.42649939 -108.64221573 604.02483368 C-108.64069089 595.99223063 -108.64485235 587.95963751 -108.65009035 579.92703639 C-108.6597631 564.74614866 -108.66257456 549.56526431 -108.66314741 534.38437387 C-108.66360688 522.66170329 -108.66566481 510.93903405 -108.66884804 499.21636391 C-108.66974557 495.8425534 -108.67063539 492.46874289 -108.67152292 489.09493238 C-108.67174396 488.25620527 -108.67196501 487.41747817 -108.67219276 486.5533351 C-108.67834723 462.96046677 -108.68229329 439.3675989 -108.68184948 415.77472973 C-108.6818339 414.88516215 -108.68181832 413.99559457 -108.68180227 413.0790704 C-108.68171916 408.57032314 -108.68162012 404.06157589 -108.68151756 399.55282863 C-108.68149762 398.65736731 -108.68147767 397.76190598 -108.68145712 396.83930946 C-108.68141669 395.02846859 -108.68137489 393.21762772 -108.68133173 391.40678685 C-108.68071891 363.23008907 -108.68822664 335.05340332 -108.7019043 306.87670898 C-108.71726292 275.22404438 -108.72587066 243.57138768 -108.72494107 211.91871911 C-108.72486644 208.54396554 -108.72481774 205.16921196 -108.72478676 201.79445839 C-108.7247751 200.96350153 -108.72476345 200.13254468 -108.72475144 199.27640731 C-108.72472066 185.90125319 -108.73110787 172.52610951 -108.73971902 159.1509585 C-108.74819344 145.71026583 -108.7491871 132.26958844 -108.7426097 118.82889458 C-108.73891273 110.84362736 -108.74075083 102.85840656 -108.75055204 94.87314426 C-108.75725143 88.91140515 -108.75350273 82.94972086 -108.74567882 76.98798112 C-108.74413759 74.57551127 -108.7459833 72.16303641 -108.7515389 69.75057247 C-108.75858805 66.47272232 -108.7533137 63.1951117 -108.74498272 59.91726971 C-108.7499509 58.97972482 -108.75491908 58.04217993 -108.76003781 57.0762246 C-108.72704114 50.93922245 -107.90685698 45.2720442 -106.49609375 39.3046875 C-106.30482767 38.47660997 -106.11356159 37.64853244 -105.91649957 36.79536165 C-101.82571874 19.98933103 -89.80049759 6.36886419 -75.49609375 -2.6953125 C-51.94747163 -16.25254023 -22.5973206 -15.34778895 0 0 Z " fill="#FEFEFE" transform="translate(458.49609375,449.6953125)"/>
<path d="M0 0 C4.84079331 0.00772203 9.6815594 -0.00221317 14.52234866 -0.00973 C22.97754258 -0.02048876 31.43267888 -0.02028382 39.88787534 -0.01258852 C52.46167808 -0.00117622 65.03543278 -0.00707573 77.60923526 -0.01621344 C100.07437294 -0.03196333 122.53948492 -0.03066042 145.004625 -0.0219767 C164.66484411 -0.01441499 184.32505383 -0.01246693 203.9852741 -0.01604463 C205.29194243 -0.01627379 206.59861077 -0.01650294 207.94487511 -0.01673904 C213.24974011 -0.01767314 218.55460511 -0.01862834 223.8594701 -0.01961833 C238.68598365 -0.02235223 253.51249721 -0.02408092 268.33901098 -0.02497675 C269.01400562 -0.02501768 269.68900026 -0.02505862 270.38444929 -0.0251008 C291.8717511 -0.02632745 313.35904966 -0.02295411 334.84635045 -0.01642801 C335.54260406 -0.01621726 336.23885766 -0.01600652 336.95620985 -0.01578938 C348.26075841 -0.01235511 359.5653069 -0.00869646 370.86985539 -0.00501886 C415.69655039 0.00954857 460.5232185 0.0088724 505.34991338 -0.00571062 C516.64895256 -0.00937461 527.94799174 -0.01300794 539.247031 -0.01642801 C540.29081439 -0.01674503 540.29081439 -0.01674503 541.35568432 -0.01706845 C562.82191347 -0.02354331 584.28814038 -0.02627864 605.75437047 -0.02497675 C606.76610576 -0.02491562 606.76610576 -0.02491562 607.79828014 -0.02485325 C623.27330546 -0.02387347 638.74833047 -0.02176177 654.22335555 -0.01887383 C659.51827282 -0.01791175 664.81319008 -0.01697322 670.10810735 -0.01604463 C671.41174708 -0.0158074 672.71538681 -0.01557017 674.05853077 -0.01532575 C693.70114872 -0.01192059 713.34375623 -0.0158906 732.98637273 -0.02348329 C755.3322015 -0.03207809 777.67800068 -0.02988036 800.02382579 -0.01364106 C812.51321709 -0.00486285 825.00254424 -0.00421265 837.49193381 -0.01557958 C845.85300311 -0.02234675 854.2140214 -0.01804842 862.5750832 -0.00506528 C867.32628042 0.00201443 872.07735099 0.00463123 876.82854386 -0.00628323 C904.21499348 -0.06453735 931.15429484 0.83248548 957.98419072 6.94790266 C958.74942052 7.1180287 959.51465032 7.28815474 960.3030689 7.46343611 C1030.31772029 23.11362224 1100.72239616 62.73214267 1145.48809697 119.76821516 C1147.70367296 122.5849816 1150.02614076 125.29035389 1152.35919072 128.01040266 C1192.94619035 176.80249017 1217.84025829 239.55585704 1224.70286538 302.39946554 C1224.78927108 303.18801155 1224.87567678 303.97655755 1224.96470083 304.78899888 C1226.91107722 323.00129516 1227.11512117 341.12139013 1227.05435958 359.42010748 C1227.04307552 364.20420519 1227.05554261 368.98826033 1227.06466707 373.77235471 C1227.07744174 382.11566709 1227.07571279 390.45887268 1227.06388738 398.80218504 C1227.04635072 411.20958493 1227.05206059 423.61690241 1227.06205429 436.02430682 C1227.07916601 458.19456098 1227.073757 480.36476538 1227.0586971 502.53501846 C1227.04560592 521.9337249 1227.04045694 541.33241413 1227.04301526 560.73112486 C1227.04317568 562.02170321 1227.0433361 563.31228157 1227.04350137 564.64196835 C1227.04416504 569.88178393 1227.04486746 575.12159949 1227.04562671 580.36141505 C1227.0477189 595.0044442 1227.04849094 609.64747325 1227.04820993 624.29050253 C1227.04819755 624.95705571 1227.04818517 625.62360888 1227.04817241 626.31036063 C1227.04768372 647.51885119 1227.04127273 668.72733562 1227.03065278 689.93582342 C1227.03030935 690.62273747 1227.02996591 691.30965151 1227.02961207 692.01738113 C1227.02401473 703.16951299 1227.0180799 714.32164467 1227.012123 725.47377634 C1226.98851711 769.70816291 1226.9823328 813.94251499 1226.99273565 858.17690657 C1226.99338886 860.97345161 1226.99404018 863.76999666 1226.99469115 866.5665417 C1226.99485218 867.257999 1226.99501322 867.9494563 1226.99517913 868.66186685 C1226.99695887 876.3207923 1226.99868101 883.97971777 1227.00033357 891.63864325 C1227.00055762 892.66906321 1227.00055762 892.66906321 1227.0007862 893.72029973 C1227.00879862 930.86640676 1227.00263452 968.01250971 1226.99163755 1005.15861569 C1226.99048982 1009.08345059 1226.98934665 1013.00828548 1226.98821073 1016.93312038 C1226.98745548 1019.53639136 1226.98668984 1022.13966234 1226.98591372 1024.74293331 C1226.9802699 1044.127059 1226.98157544 1063.51117608 1226.98614194 1082.8953018 C1226.99126275 1104.94480551 1226.98533902 1126.99427711 1226.96524765 1149.04377284 C1226.95430853 1161.3639274 1226.95142406 1173.68401877 1226.96053618 1186.00417518 C1226.96579198 1194.25470832 1226.9599644 1202.50518786 1226.94548283 1210.75570979 C1226.93755134 1215.44199006 1226.93403059 1220.12814356 1226.94405539 1224.81442275 C1226.99719415 1251.81801678 1226.32160359 1278.77558233 1220.79669072 1305.32290266 C1220.53920049 1306.59754378 1220.28171026 1307.87218489 1220.01641729 1309.18545149 C1217.52478627 1321.14034496 1214.34242735 1332.78369169 1210.54669072 1344.38540266 C1210.03743047 1345.97771712 1210.03743047 1345.97771712 1209.51788213 1347.60219954 C1190.06371929 1407.77335172 1151.99532883 1465.64144124 1101.54669072 1504.38540266 C1100.45890252 1505.28132795 1099.37449606 1506.18136876 1098.29278447 1507.08462141 C1058.7989937 1539.85016275 1010.4471025 1562.16528013 960.54669072 1573.38540266 C959.49094854 1573.62484602 958.43520635 1573.86428938 957.34747197 1574.1109886 C927.48615611 1580.73153249 897.72325135 1581.84212436 867.28279123 1581.77700669 C862.50518306 1581.77018752 857.72760527 1581.78101674 852.950004 1581.78940253 C844.60861611 1581.80167864 836.26728454 1581.80302147 827.92589071 1581.7968521 C815.52091495 1581.78770211 803.11599061 1581.79584 790.71101877 1581.80714334 C768.54461811 1581.82674535 746.37824092 1581.82917009 724.21183365 1581.82394813 C704.80917363 1581.81937989 685.40652285 1581.82000391 666.00386312 1581.82578848 C663.39491849 1581.82654537 660.78597385 1581.82730135 658.17702922 1581.82805643 C654.24492626 1581.8292017 650.31282329 1581.83035158 646.38072033 1581.83151567 C609.85378969 1581.84221081 573.32686279 1581.84698777 536.79993131 1581.83904551 C536.11259577 1581.8388972 535.42526023 1581.8387489 534.71709634 1581.8385961 C527.05400747 1581.83693736 519.39091861 1581.83518776 511.72782976 1581.83340309 C511.03607439 1581.83324206 510.34431902 1581.83308104 509.63160136 1581.83291513 C504.0216212 1581.83160831 504.0216212 1581.83160831 501.2391601 1581.83095394 C457.00522948 1581.82056578 412.77133867 1581.82832792 368.53741338 1581.8519554 C357.39064615 1581.85789971 346.24387891 1581.86379166 335.09711149 1581.86936472 C334.41058753 1581.86970849 333.72406358 1581.87005226 333.01673588 1581.87040645 C311.82842055 1581.88094828 290.64010855 1581.88652833 269.45179059 1581.88692187 C268.45271199 1581.88694104 268.45271199 1581.88694104 267.43344999 1581.8869606 C252.1496434 1581.88719923 236.86583712 1581.88598227 221.58203068 1581.88376765 C216.3521581 1581.88305166 211.12228551 1581.88237726 205.89241292 1581.8817272 C204.60482024 1581.88155739 203.31722755 1581.88138758 201.9906169 1581.88121263 C182.61192359 1581.87891623 163.23325195 1581.88685505 143.8545635 1581.90001868 C121.79849447 1581.91497489 99.74247598 1581.9157131 77.68640799 1581.89794776 C65.36752417 1581.88843198 53.04875847 1581.88972227 40.7298827 1581.90718245 C32.47232912 1581.91775846 24.21486446 1581.91345161 15.95731948 1581.89770242 C11.27181307 1581.88916306 6.58653606 1581.88641337 1.90104241 1581.90197173 C-16.33299469 1581.95821079 -34.32823557 1581.52571364 -52.46659014 1579.53376482 C-53.21912871 1579.45125684 -53.97166728 1579.36874886 -54.74701005 1579.28374064 C-76.45528069 1576.84424459 -97.7160612 1572.27756464 -118.45330928 1565.38540266 C-119.2386706 1565.13210188 -120.02403193 1564.8788011 -120.83319209 1564.61782454 C-161.78120414 1551.37237921 -199.56680249 1530.0695242 -232.45330928 1502.38540266 C-233.94604365 1501.17110579 -233.94604365 1501.17110579 -235.46893428 1499.93227766 C-243.30614821 1493.48019066 -250.57350251 1486.47865348 -257.76580928 1479.32290266 C-258.68466914 1478.41322737 -259.603529 1477.50355208 -260.5502331 1476.56631087 C-266.61059944 1470.47858396 -272.10698652 1464.10338827 -277.45330928 1457.38540266 C-278.45389422 1456.17691586 -279.45733834 1454.97078412 -280.46502803 1453.76821516 C-293.10681031 1438.4713348 -303.75497938 1421.67282189 -313.45330928 1404.38540266 C-314.00680049 1403.4140135 -314.00680049 1403.4140135 -314.57147334 1402.42300032 C-330.81617883 1373.76218732 -340.8754224 1342.30193262 -348.45330928 1310.38540266 C-348.72183711 1309.2586009 -348.72183711 1309.2586009 -348.99578974 1308.10903548 C-354.97640548 1282.19088807 -354.8994312 1255.36390814 -354.83871194 1228.93209339 C-354.83098991 1224.09130008 -354.84092511 1219.25053399 -354.84844194 1214.40974472 C-354.8592007 1205.9545508 -354.85899576 1197.49941451 -354.85130046 1189.04421805 C-354.83988815 1176.47041531 -354.84578766 1163.8966606 -354.85492538 1151.32285812 C-354.87067527 1128.85772045 -354.86937235 1106.39260847 -354.86068864 1083.92746839 C-354.85312692 1064.26724928 -354.85117887 1044.60703956 -354.85475657 1024.94681929 C-354.85498573 1023.64015095 -354.85521488 1022.33348262 -354.85545098 1020.98721828 C-354.85638507 1015.68235327 -354.85734028 1010.37748828 -354.85833027 1005.07262328 C-354.86106417 990.24610974 -354.86279286 975.41959618 -354.86368868 960.59308241 C-354.86372962 959.91808777 -354.86377056 959.24309312 -354.86381274 958.5476441 C-354.86503939 937.06034229 -354.86166605 915.57304372 -354.85513995 894.08574293 C-354.8549292 893.38948933 -354.85471845 892.69323573 -354.85450132 891.97588353 C-354.85106705 880.67133497 -354.8474084 869.36678648 -354.8437308 858.062238 C-354.82916337 813.235543 -354.82983954 768.40887489 -354.84442256 723.58218001 C-354.84808655 712.28314083 -354.85171987 700.98410165 -354.85513995 689.68506239 C-354.85535129 688.98920679 -354.85556264 688.29335119 -354.85578039 687.57640906 C-354.86225524 666.11017992 -354.86499058 644.64395301 -354.86368868 623.17772291 C-354.86364793 622.50323273 -354.86360718 621.82874254 -354.86356519 621.13381325 C-354.86258541 605.65878793 -354.8604737 590.18376291 -354.85758577 574.70873783 C-354.85662369 569.41382057 -354.85568516 564.1189033 -354.85475657 558.82398604 C-354.85451934 557.52034631 -354.85428211 556.21670658 -354.85403769 554.87356262 C-354.85063252 535.23094467 -354.85460254 515.58833716 -354.86219523 495.94572066 C-354.87079003 473.59989189 -354.8685923 451.2540927 -354.852353 428.9082676 C-354.84357479 416.4188763 -354.84292459 403.92954915 -354.85429152 391.44015958 C-354.86105869 383.07909027 -354.85676036 374.71807199 -354.84377722 366.35701019 C-354.83669751 361.60581297 -354.83408071 356.85474239 -354.84499516 352.10354952 C-354.9011617 325.72456882 -354.0535753 299.71465962 -348.76580928 273.76040266 C-348.51162226 272.48737288 -348.25743525 271.21434309 -347.9955456 269.90273665 C-336.11711335 211.87042316 -308.09946033 157.28937187 -268.45330928 113.38540266 C-267.97796748 112.85366438 -267.50262568 112.3219261 -267.01287959 111.77407454 C-257.63459943 101.28667657 -248.04416246 91.20180179 -237.00799678 82.44790266 C-234.70599089 80.5894025 -232.55190311 78.65354477 -230.39080928 76.63540266 C-189.69539946 40.14736142 -134.07078377 16.6539581 -81.07830928 6.07290266 C-79.9477209 5.84256331 -78.81713252 5.61222395 -77.65228388 5.37490462 C-51.86890585 0.52237991 -26.1336499 -0.06003432 0 0 Z M-240.53143428 93.68618391 C-243.24208957 96.19027858 -245.99604538 98.63467111 -248.76580928 101.07290266 C-252.28796408 104.23781831 -255.45522765 107.50246213 -258.50018428 111.12368391 C-260.45344308 113.38555761 -262.49366715 115.54810096 -264.55438349 117.71181868 C-284.44049447 138.73528013 -300.37183051 163.67060254 -313.45330928 189.38540266 C-313.89368525 190.24697981 -314.33406123 191.10855696 -314.78778193 191.99624251 C-339.77641212 241.36811303 -348.96327245 293.76579956 -348.83871194 348.57168513 C-348.83101434 353.44428395 -348.84091577 358.31685513 -348.84844194 363.18944989 C-348.85921802 371.70662959 -348.85898487 380.22375211 -348.85130046 388.74093436 C-348.83990426 401.40686611 -348.84577945 414.07275007 -348.85492538 426.73868155 C-348.8706879 449.36691013 -348.86936721 471.99511323 -348.86068864 494.62334421 C-348.85313088 514.42738091 -348.85117703 534.2314083 -348.85475657 554.03544615 C-348.85498573 555.35099777 -348.85521488 556.66654939 -348.85545098 558.02196622 C-348.85638506 563.36274065 -348.85733848 568.70351508 -348.85833027 574.0442895 C-348.86108062 588.97193131 -348.86279292 603.89957315 -348.86368868 618.82721518 C-348.86372962 619.50685575 -348.86377056 620.18649632 -348.86381274 620.88673206 C-348.86503966 642.52684603 -348.86166466 664.16695679 -348.85513995 685.80706976 C-348.8549292 686.50842618 -348.85471845 687.2097826 -348.85450132 687.93239224 C-348.85106694 699.32021085 -348.84740834 710.70802939 -348.8437308 722.09584792 C-348.82916469 767.24934125 -348.82983773 812.40280789 -348.84442256 857.5563011 C-348.84808649 868.93615019 -348.85171979 880.31599928 -348.85513995 891.69584845 C-348.85535129 892.39666133 -348.85556264 893.09747421 -348.85578039 893.81952384 C-348.86225457 915.43635095 -348.8649907 937.05317583 -348.86368868 958.67000387 C-348.86364793 959.34916521 -348.86360718 960.02832655 -348.86356519 960.72806854 C-348.86262751 975.64066883 -348.86072612 990.55326889 -348.85795718 1005.46586895 C-348.85684699 1011.46648851 -348.85580169 1017.46710808 -348.85475657 1023.46772764 C-348.85451934 1024.78038712 -348.85428211 1026.0930466 -348.85403769 1027.44548364 C-348.85063132 1047.23136242 -348.85460484 1067.01723085 -348.86219523 1086.8031082 C-348.87078723 1109.31158528 -348.8685983 1131.820033 -348.852353 1154.32850644 C-348.84356978 1166.9116126 -348.84293189 1179.49465508 -348.85429152 1192.07775953 C-348.86105267 1200.49888555 -348.85677102 1208.91996086 -348.84377722 1217.3410794 C-348.83668926 1222.128289 -348.83409849 1226.91537276 -348.84499516 1231.7025781 C-348.89876228 1257.18939973 -348.17756549 1282.25037829 -342.64080928 1307.26040266 C-342.38146601 1308.4647093 -342.12212275 1309.66901594 -341.8549206 1310.90981673 C-332.66190035 1352.68263404 -316.16881581 1393.32725784 -291.45330928 1428.38540266 C-291.06965205 1428.93744368 -290.68599482 1429.48948469 -290.29071162 1430.05825423 C-284.67928471 1438.13176975 -278.79657782 1445.8658989 -272.45330928 1453.38540266 C-271.25448115 1454.86266829 -271.25448115 1454.86266829 -270.03143428 1456.36977766 C-263.42867601 1464.40871871 -256.22296291 1471.83006299 -248.89080928 1479.19790266 C-248.40811579 1479.68577254 -247.92542231 1480.17364241 -247.42810176 1480.67629622 C-240.78545779 1487.37504026 -233.8601123 1493.53869541 -226.45330928 1499.38540266 C-225.22644065 1500.37460644 -223.99983309 1501.36413421 -222.77362178 1502.35415266 C-183.93739088 1533.26220723 -138.77227474 1555.05237457 -90.45330928 1566.38540266 C-89.10946162 1566.70420393 -89.10946162 1566.70420393 -87.73846553 1567.02944563 C-59.65167659 1573.58399291 -32.08358118 1574.83689218 -3.39669194 1574.77080533 C1.42140722 1574.76309427 6.23947875 1574.77301433 11.05757382 1574.78053532 C19.47608306 1574.79130194 27.89453444 1574.7910842 36.31304624 1574.78339384 C48.83243851 1574.77198873 61.35178248 1574.77787744 73.87117449 1574.78701876 C96.23931856 1574.80277478 118.60743685 1574.80146314 140.97558335 1574.79278203 C160.55336317 1574.78522162 180.13113356 1574.78327164 199.70891454 1574.78684996 C201.00988472 1574.78707911 202.31085489 1574.78730827 203.65124841 1574.78754437 C208.93296578 1574.78847846 214.21468315 1574.78943367 219.49640051 1574.79042366 C234.25879856 1574.79315767 249.0211966 1574.79488628 263.78359487 1574.79578207 C264.4556964 1574.79582301 265.12779793 1574.79586395 265.82026618 1574.79590612 C287.21813142 1574.79713292 308.61599341 1574.79375874 330.01385763 1574.78723334 C331.0540016 1574.78691722 331.0540016 1574.78691722 332.11515858 1574.78659471 C343.37394965 1574.78316041 354.63274065 1574.77950177 365.89153164 1574.77582419 C410.52708199 1574.76125998 455.16260534 1574.76192981 499.79815557 1574.77651594 C511.04668688 1574.78017996 522.2952182 1574.7838133 533.54374959 1574.78723334 C534.58287713 1574.78755035 534.58287713 1574.78755035 535.64299714 1574.78787377 C557.0162032 1574.79434945 578.38940702 1574.7970838 599.76261403 1574.79578207 C600.43426766 1574.79574132 601.10592128 1574.79570057 601.79792804 1574.79565858 C617.20860879 1574.79467875 632.61928921 1574.79256697 648.02996971 1574.78967915 C653.30304776 1574.78871708 658.5761258 1574.78777855 663.84920385 1574.78684996 C665.14746913 1574.78661273 666.44573441 1574.78637549 667.78334106 1574.78613107 C687.34041995 1574.78272668 706.89748835 1574.78669455 726.45456579 1574.79428862 C748.70742748 1574.80288664 770.96025946 1574.80067903 793.21311747 1574.78444639 C805.64875525 1574.77567289 818.0843286 1574.77501103 830.51996463 1574.78638491 C838.847827 1574.79315799 847.17563819 1574.7888433 855.50349304 1574.7758706 C860.23411893 1574.76879882 864.96461776 1574.7661569 869.69523924 1574.77708855 C948.56738018 1574.94580664 1027.09943151 1556.11261753 1089.54669072 1505.38540266 C1090.36395635 1504.74731673 1091.18122197 1504.10923079 1092.02325322 1503.45180891 C1109.56628531 1489.70881472 1126.88782423 1474.52479761 1140.60137822 1456.88540266 C1142.7246439 1454.15670782 1144.97406125 1451.56412971 1147.23419072 1448.94790266 C1194.72919328 1391.76303869 1219.77141524 1315.90559392 1219.67811849 1242.00538538 C1219.67977199 1240.38841491 1219.68186002 1238.77144483 1219.68433859 1237.1544754 C1219.6898652 1232.72999043 1219.68924024 1228.30552497 1219.687561 1223.88103766 C1219.68682629 1219.0601173 1219.69186127 1214.23920227 1219.69613602 1209.41828422 C1219.70369629 1199.86504638 1219.70590807 1190.31181413 1219.70646508 1180.75857362 C1219.70738066 1169.31200946 1219.71405395 1157.86545044 1219.7208119 1146.4188885 C1219.73685377 1118.7571783 1219.742773 1091.09546867 1219.74756065 1063.43375466 C1219.74989829 1050.34298627 1219.75350111 1037.25221832 1219.75725603 1024.16145027 C1219.76988856 980.03480599 1219.78070233 935.9081619 1219.78409648 891.78151585 C1219.78425872 889.67382956 1219.78442428 887.56614328 1219.78459087 885.45845699 C1219.78492466 881.23167901 1219.78525514 877.00490104 1219.78558543 872.77812306 C1219.78597232 867.82992137 1219.78636192 862.88171968 1219.78675649 857.93351798 C1219.78686891 856.51731965 1219.78698033 855.10112132 1219.78709074 853.68492299 C1219.79063914 808.21457373 1219.80571452 762.74424028 1219.82902849 717.27389704 C1219.84578073 684.5879765 1219.86124952 651.90205895 1219.86576345 619.21613405 C1219.86585693 618.54328667 1219.86595042 617.87043928 1219.86604674 617.17720258 C1219.86815685 601.74023742 1219.86924313 586.30327236 1219.86962654 570.86630706 C1219.86979799 565.584147 1219.87001342 560.30198694 1219.87026098 555.01982687 C1219.87031674 553.71925255 1219.87037251 552.41867823 1219.87042997 551.07869256 C1219.87157936 530.17244491 1219.88259174 509.26621365 1219.89714803 488.35997153 C1219.91153211 467.33718829 1219.91473921 446.31442603 1219.90670805 425.29163921 C1219.90226094 412.81258895 1219.90607562 400.3336065 1219.92194656 387.85456518 C1219.93173107 379.50496879 1219.93048532 371.15541965 1219.92051033 362.80582363 C1219.91514331 358.05762857 1219.91432668 353.30956326 1219.92701905 348.5613792 C1219.9945019 321.60082479 1218.15960153 295.83370226 1212.54669072 269.38540266 C1212.32891973 268.32893538 1212.32891973 268.32893538 1212.10674932 267.25112532 C1206.37849099 239.7330216 1196.62804373 213.15812577 1183.54864385 188.29946516 C1182.49394603 186.28464282 1181.46486086 184.2579438 1180.43731572 182.22915266 C1170.36265528 162.52844611 1157.64152912 144.41448251 1143.54669072 127.38540266 C1142.7706751 126.42376204 1141.99465947 125.46212141 1141.19512822 124.47134016 C1134.57307425 116.40649231 1127.3389556 108.9634874 1119.98419072 101.57290266 C1119.26028646 100.84123381 1119.26028646 100.84123381 1118.52175786 100.09478377 C1111.87770383 93.39461894 1104.94102464 87.24927637 1097.54669072 81.38540266 C1096.26854358 80.33718349 1094.99223859 79.28671019 1093.71856572 78.23305891 C1062.43933795 52.65519145 1025.8389579 33.88664167 987.54669072 21.38540266 C986.7279749 21.11099348 985.90925908 20.8365843 985.06573369 20.55385969 C974.58948573 17.05889519 963.98040139 14.45425704 953.17169072 12.19790266 C951.51931402 11.84091292 951.51931402 11.84091292 949.83355596 11.47671126 C923.73296503 6.27736132 897.37204933 5.93810757 870.87870036 5.99379864 C866.02409083 6.00060996 861.16951142 5.98979238 856.31490871 5.9814028 C847.83695292 5.96911972 839.35905254 5.96778693 830.8810909 5.97395323 C818.27334588 5.98309845 805.6656515 5.97496917 793.05791033 5.96366199 C770.53139139 5.94405535 748.00489553 5.94163604 725.47837009 5.94685719 C705.76376398 5.95142405 686.04916696 5.95080311 666.33456113 5.94501684 C663.68448227 5.94425996 661.03440341 5.94350398 658.38432455 5.9427489 C654.39034593 5.94160364 650.3963673 5.94045394 646.40238867 5.93928966 C609.29994837 5.92854553 572.1975109 5.92381814 535.09506967 5.93175982 C534.39685005 5.93190812 533.69863044 5.93205643 532.97925265 5.93220923 C525.19465016 5.933868 517.41004768 5.93561759 509.62544522 5.93740224 C508.92270725 5.93756326 508.21996929 5.93772429 507.49593624 5.93789019 C503.23308951 5.93886767 503.23308951 5.93886767 498.97024277 5.93985138 C454.02053159 5.95024269 409.07085956 5.94247152 364.12115362 5.91884993 C352.79152093 5.9129058 341.46188822 5.90701393 330.13225534 5.9014406 C329.43450431 5.90109683 328.73675328 5.90075306 328.01785828 5.90039888 C306.49090849 5.88986082 284.96396197 5.88427714 263.4370096 5.88388346 C262.76054579 5.88387068 262.08408199 5.8838579 261.38711929 5.88384473 C246.53287194 5.88361637 231.67862487 5.88462315 216.82437767 5.88675378 C210.84713048 5.88760235 204.86988328 5.88834649 198.89263608 5.88907812 C197.58512825 5.88924793 196.27762042 5.88941774 194.93049114 5.8895927 C175.23481585 5.89189103 155.53916185 5.88394108 135.84349134 5.87078665 C113.43515592 5.85584666 91.02687023 5.85507088 68.61853585 5.87285756 C56.09621381 5.88238931 43.57400793 5.88104981 31.05169376 5.86362287 C22.66615675 5.85307525 14.28070753 5.85731481 5.89517906 5.87310291 C1.1316364 5.88167189 -3.63167997 5.88431602 -8.39521036 5.86883359 C-94.67512498 5.6081718 -176.88947865 34.52123933 -240.53143428 93.68618391 Z " fill="#8A76F4" transform="translate(364.4533092752099,9.614597337320447)"/>
<path d="M0 0 C8.43328436 8.8764126 11.3704169 17.54369927 11.38812733 29.67991257 C11.39047956 30.36931938 11.39283179 31.0587262 11.3952553 31.76902413 C11.40191011 34.07818947 11.40148814 36.38729808 11.40107727 38.69647217 C11.40437806 40.36919339 11.40810409 42.04191381 11.41221875 43.71463323 C11.42222191 48.31081117 11.42595281 52.90697605 11.42860806 57.50316334 C11.43251597 62.4603563 11.4420938 67.41753896 11.45082092 72.37472534 C11.47056891 84.34419352 11.48064826 96.31366253 11.48954871 108.28314292 C11.4939333 113.92032226 11.49929957 119.55750066 11.50453758 125.19467926 C11.52154623 143.93346842 11.5360413 162.67225701 11.54328632 181.4110527 C11.54519619 186.27208202 11.54711653 191.13311133 11.54907227 195.99414062 C11.54955601 197.20231411 11.55003975 198.41048759 11.55053815 199.65527239 C11.55884191 219.23527315 11.58418631 238.81521289 11.61665294 258.39518699 C11.64971542 278.49834706 11.66773425 298.60147611 11.67093056 318.70466352 C11.67309613 329.99163172 11.68185194 341.27851086 11.70739174 352.56545258 C11.7290874 362.17563368 11.73715461 371.78570408 11.72742496 381.3959069 C11.72287735 386.2984191 11.7247935 391.20070282 11.7441864 396.10318375 C11.76179727 400.5939577 11.76083721 405.08433613 11.74528911 409.57511416 C11.74290993 411.19691031 11.74725272 412.8187337 11.75911776 414.44048819 C11.81931153 423.2136036 11.45026038 430.73550492 7.25390625 438.62890625 C6.79628906 439.51964844 6.33867188 440.41039062 5.8671875 441.328125 C0.2954588 449.84467126 -6.63517602 455.0817162 -16.43359375 457.96875 C-27.69010859 460.21208845 -37.44575423 459.21837051 -47.14453125 453.12109375 C-52.67070932 449.1738237 -56.64215525 444.67065697 -59.74609375 438.62890625 C-60.07379623 438.01211221 -60.40149871 437.39531817 -60.73913157 436.7598334 C-64.50786902 428.72776979 -64.30029501 420.74792021 -64.24057007 412.07359314 C-64.24375013 410.39670379 -64.24868117 408.71981702 -64.25520289 407.04293734 C-64.26798469 402.45374131 -64.25592913 397.8649002 -64.23967433 393.27572763 C-64.22648449 388.31930024 -64.23642506 383.36291137 -64.24343872 378.40647888 C-64.25350934 368.70452694 -64.24225642 359.00271162 -64.22373812 349.30077665 C-64.20294545 338.00010822 -64.20311115 326.69946914 -64.20408328 315.39878518 C-64.20508404 295.23482213 -64.18677427 275.07092257 -64.15771484 254.90698242 C-64.12953727 235.34479618 -64.11537351 215.7826658 -64.11669922 196.22045898 C-64.11677913 195.01545464 -64.11685904 193.8104503 -64.11694138 192.56893068 C-64.11702209 191.36600087 -64.1171028 190.16307106 -64.11718595 188.92368883 C-64.11856607 166.64624688 -64.10678349 144.36882864 -64.08887952 122.09139438 C-64.08284992 114.21571842 -64.08072077 106.34004683 -64.07981491 98.46436882 C-64.0784498 88.86634405 -64.06950869 79.26835925 -64.05114929 69.67035144 C-64.04192363 64.77408378 -64.03581852 59.87786721 -64.03833771 54.98159027 C-64.04053274 50.49789816 -64.03346082 46.01431891 -64.01904066 41.53065033 C-64.01542367 39.91034625 -64.01514397 38.29003049 -64.01857524 36.66972601 C-64.04421747 23.05103273 -63.21450284 11.94005411 -53.73828125 1.39453125 C-38.16618009 -13.45198814 -16.35459556 -14.12125107 0 0 Z " fill="#F1EFFE" transform="translate(613.74609375,572.37109375)"/>
<path d="M0 0 C7.88646333 8.30085877 11.37392011 16.74279403 11.3825407 28.18623161 C11.38576515 29.27309694 11.3889896 30.35996227 11.39231175 31.47976291 C11.38998885 33.25465286 11.38998885 33.25465286 11.38761902 35.06539917 C11.38988458 36.33078242 11.39215013 37.59616568 11.39448434 38.89989388 C11.40059339 42.40538732 11.4004698 45.91085687 11.39928997 49.41635442 C11.39908574 53.19967214 11.40460682 56.98298223 11.40934753 60.76629639 C11.41764953 68.17569732 11.42040216 75.5850903 11.42095991 82.9944955 C11.42143525 89.01735936 11.42349087 95.04022061 11.42666054 101.06308365 C11.43546557 118.14174459 11.4400801 135.22039925 11.43933006 152.29906248 C11.43929011 153.2195369 11.43925015 154.14001132 11.43920898 155.08837891 C11.4391681 156.00997799 11.43912722 156.93157708 11.4390851 157.88110341 C11.43867858 172.81947091 11.44824998 187.75781321 11.46234735 202.69617341 C11.47671066 218.03745214 11.48361757 233.37871858 11.48275357 248.7200042 C11.48242161 257.33192072 11.48516857 265.94381082 11.49593163 274.55572128 C11.50503598 281.88736249 11.50721237 289.21896528 11.5004222 296.55060969 C11.49715679 300.29031144 11.4971011 304.0299395 11.50577545 307.76963425 C11.5150874 311.82596065 11.50886506 315.88211634 11.50114441 319.93844604 C11.50628797 321.11724457 11.51143154 322.29604309 11.51673096 323.51056278 C11.46302303 336.26464193 8.3966796 346.02316614 -0.3203125 355.51171875 C-9.64428544 363.6495502 -19.99569801 365.20449794 -31.83740234 364.76074219 C-40.80050869 364.14164812 -49.00742664 358.87301074 -54.99609375 352.37890625 C-61.08613021 344.72819192 -63.8673846 336.81701501 -63.8747282 327.0743742 C-63.87795265 325.98812557 -63.8811771 324.90187694 -63.88449925 323.78271168 C-63.88295065 322.60013384 -63.88140205 321.41755599 -63.87980652 320.19914246 C-63.88207208 318.93446477 -63.88433763 317.66978708 -63.88667184 316.36678582 C-63.8927809 312.863223 -63.8926573 309.35968407 -63.89147747 305.85611713 C-63.89127323 302.07482529 -63.89679437 298.29354108 -63.90153503 294.51225281 C-63.90983724 287.10652688 -63.91258968 279.70080891 -63.91314741 272.29507872 C-63.91362277 266.27460712 -63.91567853 260.25413814 -63.91884804 254.23366737 C-63.92765342 237.16007209 -63.93226759 220.0864831 -63.93151756 203.01288553 C-63.93147761 202.09267383 -63.93143765 201.17246214 -63.93139648 200.22436523 C-63.9313556 199.30302846 -63.93131472 198.38169168 -63.9312726 197.43243561 C-63.93086616 182.5012102 -63.94043555 167.57001 -63.95453485 152.63879188 C-63.96890163 137.30315839 -63.97580487 121.96753719 -63.97494107 106.63189679 C-63.97460921 98.02386079 -63.97735167 89.41585122 -63.98811913 80.80782127 C-63.99722809 73.47877051 -63.99939612 66.14975816 -63.9926097 58.82070418 C-63.98934651 55.08290379 -63.98928056 51.3451771 -63.99796295 47.60738373 C-64.00728737 43.55140712 -64.00104669 39.49560093 -63.99333191 35.43962097 C-63.99847547 34.26373529 -64.00361904 33.08784961 -64.00891846 31.87633103 C-63.95838097 19.853259 -61.9654118 10.55001505 -53.73828125 1.39453125 C-38.16618009 -13.45198814 -16.35459556 -14.12125107 0 0 Z " fill="#F2EFFE" transform="translate(988.74609375,697.37109375)"/>
<path d="M0 0 C7.88646333 8.30085877 11.37392011 16.74279403 11.3825407 28.18623161 C11.38576515 29.27309694 11.3889896 30.35996227 11.39231175 31.47976291 C11.38998885 33.25465286 11.38998885 33.25465286 11.38761902 35.06539917 C11.38988458 36.33078242 11.39215013 37.59616568 11.39448434 38.89989388 C11.40059339 42.40538732 11.4004698 45.91085687 11.39928997 49.41635442 C11.39908574 53.19967214 11.40460682 56.98298223 11.40934753 60.76629639 C11.41764953 68.17569732 11.42040216 75.5850903 11.42095991 82.9944955 C11.42143525 89.01735936 11.42349087 95.04022061 11.42666054 101.06308365 C11.43546557 118.14174459 11.4400801 135.22039925 11.43933006 152.29906248 C11.43929011 153.2195369 11.43925015 154.14001132 11.43920898 155.08837891 C11.4391681 156.00997799 11.43912722 156.93157708 11.4390851 157.88110341 C11.43867858 172.81947091 11.44824998 187.75781321 11.46234735 202.69617341 C11.47671066 218.03745214 11.48361757 233.37871858 11.48275357 248.7200042 C11.48242161 257.33192072 11.48516857 265.94381082 11.49593163 274.55572128 C11.50503598 281.88736249 11.50721237 289.21896528 11.5004222 296.55060969 C11.49715679 300.29031144 11.4971011 304.0299395 11.50577545 307.76963425 C11.5150874 311.82596065 11.50886506 315.88211634 11.50114441 319.93844604 C11.50628797 321.11724457 11.51143154 322.29604309 11.51673096 323.51056278 C11.46302303 336.26464193 8.3966796 346.02316614 -0.3203125 355.51171875 C-9.64428544 363.6495502 -19.99569801 365.20449794 -31.83740234 364.76074219 C-40.80050869 364.14164812 -49.00742664 358.87301074 -54.99609375 352.37890625 C-61.08613021 344.72819192 -63.8673846 336.81701501 -63.8747282 327.0743742 C-63.87795265 325.98812557 -63.8811771 324.90187694 -63.88449925 323.78271168 C-63.88295065 322.60013384 -63.88140205 321.41755599 -63.87980652 320.19914246 C-63.88207208 318.93446477 -63.88433763 317.66978708 -63.88667184 316.36678582 C-63.8927809 312.863223 -63.8926573 309.35968407 -63.89147747 305.85611713 C-63.89127323 302.07482529 -63.89679437 298.29354108 -63.90153503 294.51225281 C-63.90983724 287.10652688 -63.91258968 279.70080891 -63.91314741 272.29507872 C-63.91362277 266.27460712 -63.91567853 260.25413814 -63.91884804 254.23366737 C-63.92765342 237.16007209 -63.93226759 220.0864831 -63.93151756 203.01288553 C-63.93147761 202.09267383 -63.93143765 201.17246214 -63.93139648 200.22436523 C-63.9313556 199.30302846 -63.93131472 198.38169168 -63.9312726 197.43243561 C-63.93086616 182.5012102 -63.94043555 167.57001 -63.95453485 152.63879188 C-63.96890163 137.30315839 -63.97580487 121.96753719 -63.97494107 106.63189679 C-63.97460921 98.02386079 -63.97735167 89.41585122 -63.98811913 80.80782127 C-63.99722809 73.47877051 -63.99939612 66.14975816 -63.9926097 58.82070418 C-63.98934651 55.08290379 -63.98928056 51.3451771 -63.99796295 47.60738373 C-64.00728737 43.55140712 -64.00104669 39.49560093 -63.99333191 35.43962097 C-63.99847547 34.26373529 -64.00361904 33.08784961 -64.00891846 31.87633103 C-63.95838097 19.853259 -61.9654118 10.55001505 -53.73828125 1.39453125 C-38.16618009 -13.45198814 -16.35459556 -14.12125107 0 0 Z " fill="#F1EFFE" transform="translate(738.74609375,697.37109375)"/>
<path d="M0 0 C8.46041249 6.0986719 15.11059407 14.00321349 17.375 24.375 C18.3168474 32.42094005 18.05936726 40.57749073 18.02197266 48.66381836 C18.02875524 51.12722926 18.03766196 53.59063508 18.04852295 56.05403137 C18.06889231 62.02865081 18.06599842 68.00283399 18.05145974 73.977436 C18.04012731 78.83738076 18.03865381 83.69723764 18.04407883 88.55719185 C18.04484499 89.2512036 18.04561116 89.94521536 18.04640054 90.66025778 C18.04799931 92.07052889 18.04962038 93.48079997 18.0512635 94.89107103 C18.06549239 108.08912253 18.04917392 121.28699987 18.02226166 134.48502279 C17.99993037 145.78591944 18.00380228 157.08655917 18.02685547 168.38745117 C18.05367279 181.53954002 18.06411418 194.69147651 18.04879415 207.84358889 C18.04720156 209.24872336 18.0456297 210.65385786 18.04407883 212.05899239 C18.04330745 212.75017906 18.04253607 213.44136574 18.04174132 214.15349747 C18.03744168 219.00167576 18.04467327 223.84975664 18.05647659 228.69791985 C18.07204501 235.23574152 18.06080475 241.7731559 18.03200531 248.31095695 C18.02542183 250.70337118 18.02724493 253.09582637 18.03831863 255.48822403 C18.10689439 271.8150423 17.76580706 284.9955603 5.6953125 297.28515625 C-2.73549643 304.8785616 -12.25981319 308.05763709 -23.60546875 307.72265625 C-34.71102776 306.44400845 -44.00580876 300.45455339 -50.91561317 291.80598354 C-59.42521831 279.7041528 -58.33740085 266.09210226 -58.27197266 251.95678711 C-58.27875638 249.4916062 -58.28766373 247.02643036 -58.29852295 244.56126404 C-58.3188791 238.58644872 -58.31600597 232.61206986 -58.30145974 226.63727205 C-58.29012317 221.77781935 -58.28865557 216.91845455 -58.29407883 212.05899239 C-58.29484499 211.3648274 -58.29561116 210.67066241 -58.29640054 209.95546212 C-58.29799932 208.54486681 -58.29962039 207.13427153 -58.3012635 205.72367627 C-58.31548724 192.52755818 -58.29918095 179.33161437 -58.27226166 166.13552488 C-58.24992094 154.83432201 -58.25381105 143.53337599 -58.27685547 132.23217773 C-58.30366484 119.07862632 -58.31411945 105.92522721 -58.29879415 92.77165228 C-58.29720156 91.36683216 -58.2956297 89.96201202 -58.29407883 88.55719185 C-58.29330745 87.86615945 -58.29253607 87.17512705 -58.29174132 86.46315427 C-58.28744005 81.61399365 -58.29467662 76.76493037 -58.30647659 71.91578484 C-58.32203371 65.37959441 -58.31082295 58.84381174 -58.28200531 52.30764198 C-58.27541704 49.91480688 -58.27725323 47.52193083 -58.28831863 45.12911224 C-58.35637566 28.91218249 -57.91516856 16.80883501 -46.08984375 4.5703125 C-32.84851217 -7.22307632 -15.26058163 -9.39112715 0 0 Z " fill="#F1EFFE" transform="translate(857.625,786.625)"/>
</svg>
